static_grf.mot
version=1
nRows=10
nColumns 19
inDegrees=yes
endheader
time	1_ground_force_vx	1_ground_force_vy	1_ground_force_vz	1_ground_force_px	1_ground_force_py	1_ground_force_pz	1_ground_torque_x	1_ground_torque_y	1_ground_torque_z	2_ground_force_vx	2_ground_force_vy	2_ground_force_vz	2_ground_force_px	2_ground_force_py	2_ground_force_pz	2_ground_torque_x	2_ground_torque_y	2_ground_torque_z
            0.005000	           -1.745566	          412.380954	          -24.732970	           -0.272410	            0.006229	           -0.408429	           -0.008263	            1.952188	           -0.117084	           -1.409169	          432.471552	           27.729254	           -0.278708	            0.005435	           -0.685648	            0.005879	           -1.804231	           -0.115684
            0.005500	           -1.563189	          413.463960	          -25.049779	           -0.272422	            0.006226	           -0.407740	           -0.007365	            1.947966	           -0.118018	           -1.315490	          432.472057	           27.682286	           -0.278620	            0.005434	           -0.685388	            0.005517	           -1.813678	           -0.116092
            0.006000	           -1.699774	          413.282064	          -24.683363	           -0.272503	            0.006228	           -0.408089	           -0.008025	            1.951196	           -0.116536	           -1.460836	          433.761767	           27.358448	           -0.278540	            0.005436	           -0.685871	            0.005852	           -1.737706	           -0.109601
            0.006500	           -1.699921	          413.462557	          -24.728446	           -0.272405	            0.006228	           -0.408072	           -0.007753	            1.885690	           -0.112780	           -1.502225	          432.287240	           27.681708	           -0.278601	            0.005435	           -0.685671	            0.006172	           -1.775945	           -0.113723
            0.007000	           -1.516192	          414.002573	          -24.543159	           -0.272280	            0.006227	           -0.407852	           -0.007175	            1.959130	           -0.116142	           -1.551753	          433.023801	           27.637428	           -0.278479	            0.005437	           -0.686009	            0.006388	           -1.782548	           -0.113770
            0.007500	           -1.700457	          413.283244	          -24.958499	           -0.272686	            0.006227	           -0.407935	           -0.007903	            1.920875	           -0.116003	           -1.316757	          432.839837	           27.824384	           -0.278535	            0.005436	           -0.685861	            0.005530	           -1.817866	           -0.116858
            0.008000	           -1.608822	          414.184424	          -24.909005	           -0.272356	            0.006226	           -0.407779	           -0.007691	            1.980001	           -0.119077	           -1.225695	          433.576570	           27.873900	           -0.278893	            0.005436	           -0.686113	            0.005104	           -1.805416	           -0.116067
            0.008500	           -1.379718	          412.923168	          -25.052553	           -0.272530	            0.006228	           -0.408257	           -0.006857	            2.052175	           -0.124508	           -1.361051	          432.103880	           27.587135	           -0.278884	            0.005434	           -0.685609	            0.005580	           -1.771417	           -0.113094
            0.009000	           -1.562488	          412.741914	          -24.823591	           -0.272405	            0.006229	           -0.408439	           -0.007335	            1.937514	           -0.116528	           -1.130084	          433.025156	           27.684177	           -0.278601	            0.005436	           -0.686056	            0.004804	           -1.840679	           -0.117678
            0.009500	           -1.608951	          413.643990	          -25.003036	           -0.272545	            0.006227	           -0.407987	           -0.007626	            1.960589	           -0.118509	           -1.268722	          432.472896	           27.494553	           -0.278755	            0.005434	           -0.685519	            0.005270	           -1.796486	           -0.114212
